{
	"asset":{
		"generator":"Khronos glTF Blender I/O v3.5.30",
		"version":"2.0"
	},
	"extensionsUsed":[
		"KHR_materials_specular",
		"KHR_materials_ior"
	],
	"scene":0,
	"scenes":[
		{
			"name":"Scene",
			"nodes":[
				5
			]
		}
	],
	"nodes":[
		{
			"mesh":0,
			"name":"fish.001",
			"translation":[
				2.86993408203125,
				3.2734029293060303,
				-0.7391878962516785
			]
		},
		{
			"mesh":1,
			"name":"fish.002",
			"translation":[
				2.86993408203125,
				2.2720487117767334,
				-3.7565715312957764
			]
		},
		{
			"mesh":2,
			"name":"fish.003",
			"translation":[
				-2.3909225463867188,
				2.2720484733581543,
				-5.519313335418701
			]
		},
		{
			"mesh":3,
			"name":"fish.004",
			"translation":[
				-2.3909225463867188,
				2.2720487117767334,
				-2.7689640522003174
			]
		},
		{
			"mesh":4,
			"name":"fish.005",
			"scale":[
				0.5351583957672119,
				0.5351583957672119,
				0.5351583957672119
			],
			"translation":[
				-4.532314300537109,
				1.0887982845306396,
				-2.2632393836975098
			]
		},
		{
			"children":[
				0,
				1,
				2,
				3,
				4
			],
			"mesh":5,
			"name":"fish",
			"rotation":[
				0.7071068286895752,
				0,
				0,
				0.7071068286895752
			],
			"translation":[
				-36.97309875488281,
				3.771928310394287,
				-42.1451301574707
			]
		}
	],
	"animations":[
		{
			"channels":[
				{
					"sampler":0,
					"target":{
						"node":5,
						"path":"translation"
					}
				}
			],
			"name":"fishAction",
			"samplers":[
				{
					"input":19,
					"interpolation":"LINEAR",
					"output":20
				}
			]
		}
	],
	"materials":[
		{
			"doubleSided":true,
			"extensions":{
				"KHR_materials_specular":{
					"specularColorTexture":{
						"index":0
					},
					"specularColorFactor":[
						2.371357614441398,
						2.371357614441398,
						2.371357614441398
					]
				},
				"KHR_materials_ior":{
					"ior":1.4500000476837158
				}
			},
			"name":"Fish",
			"normalTexture":{
				"index":1
			},
			"pbrMetallicRoughness":{
				"baseColorTexture":{
					"index":2
				},
				"metallicFactor":0,
				"metallicRoughnessTexture":{
					"index":3
				}
			}
		}
	],
	"meshes":[
		{
			"name":"Plane.001",
			"primitives":[
				{
					"attributes":{
						"POSITION":0,
						"TEXCOORD_0":1,
						"NORMAL":2
					},
					"indices":3,
					"material":0
				}
			]
		},
		{
			"name":"Plane.012",
			"primitives":[
				{
					"attributes":{
						"POSITION":4,
						"TEXCOORD_0":5,
						"NORMAL":6
					},
					"indices":3,
					"material":0
				}
			]
		},
		{
			"name":"Plane.022",
			"primitives":[
				{
					"attributes":{
						"POSITION":7,
						"TEXCOORD_0":8,
						"NORMAL":9
					},
					"indices":3,
					"material":0
				}
			]
		},
		{
			"name":"Plane.023",
			"primitives":[
				{
					"attributes":{
						"POSITION":10,
						"TEXCOORD_0":11,
						"NORMAL":12
					},
					"indices":3,
					"material":0
				}
			]
		},
		{
			"name":"Plane.024",
			"primitives":[
				{
					"attributes":{
						"POSITION":13,
						"TEXCOORD_0":14,
						"NORMAL":15
					},
					"indices":3,
					"material":0
				}
			]
		},
		{
			"name":"Plane.011",
			"primitives":[
				{
					"attributes":{
						"POSITION":16,
						"TEXCOORD_0":17,
						"NORMAL":18
					},
					"indices":3,
					"material":0
				}
			]
		}
	],
	"textures":[
		{
			"sampler":0,
			"source":0
		},
		{
			"sampler":0,
			"source":1
		},
		{
			"sampler":0,
			"source":1
		},
		{
			"sampler":0,
			"source":2
		}
	],
	"images":[
		{
			"bufferView":4,
			"mimeType":"image/png",
			"name":"Image"
		},
		{
			"bufferView":5,
			"mimeType":"image/png",
			"name":"Screen Shot 2024-10-09 at 10.09.08 PM"
		},
		{
			"bufferView":6,
			"mimeType":"image/png",
			"name":"Screen Shot 2024-10-09 at 10.09.08 PM"
		}
	],
	"accessors":[
		{
			"bufferView":0,
			"componentType":5126,
			"count":161,
			"max":[
				1.8691089153289795,
				0.5454822778701782,
				0.9667396545410156
			],
			"min":[
				-2.040095567703247,
				-0.6748252511024475,
				-1.0980814695358276
			],
			"type":"VEC3"
		},
		{
			"bufferView":1,
			"componentType":5126,
			"count":161,
			"type":"VEC2"
		},
		{
			"bufferView":2,
			"componentType":5126,
			"count":161,
			"type":"VEC3"
		},
		{
			"bufferView":3,
			"componentType":5123,
			"count":834,
			"type":"SCALAR"
		},
		{
			"bufferView":7,
			"componentType":5126,
			"count":161,
			"max":[
				1.8691089153289795,
				-0.22329968214035034,
				0.9667396545410156
			],
			"min":[
				-2.040095567703247,
				-1.2747554779052734,
				-1.0980814695358276
			],
			"type":"VEC3"
		},
		{
			"bufferView":8,
			"componentType":5126,
			"count":161,
			"type":"VEC2"
		},
		{
			"bufferView":9,
			"componentType":5126,
			"count":161,
			"type":"VEC3"
		},
		{
			"bufferView":10,
			"componentType":5126,
			"count":161,
			"max":[
				1.8691089153289795,
				0.5370271801948547,
				0.9667396545410156
			],
			"min":[
				-2.040095567703247,
				-0.7123960256576538,
				-1.0980814695358276
			],
			"type":"VEC3"
		},
		{
			"bufferView":11,
			"componentType":5126,
			"count":161,
			"type":"VEC2"
		},
		{
			"bufferView":12,
			"componentType":5126,
			"count":161,
			"type":"VEC3"
		},
		{
			"bufferView":13,
			"componentType":5126,
			"count":161,
			"max":[
				1.8691089153289795,
				0.8683466911315918,
				0.9667396545410156
			],
			"min":[
				-2.040095567703247,
				0.13353624939918518,
				-1.0980814695358276
			],
			"type":"VEC3"
		},
		{
			"bufferView":14,
			"componentType":5126,
			"count":161,
			"type":"VEC2"
		},
		{
			"bufferView":15,
			"componentType":5126,
			"count":161,
			"type":"VEC3"
		},
		{
			"bufferView":16,
			"componentType":5126,
			"count":161,
			"max":[
				1.8691089153289795,
				1.178413987159729,
				0.9667396545410156
			],
			"min":[
				-2.040095567703247,
				0.38861724734306335,
				-1.0980814695358276
			],
			"type":"VEC3"
		},
		{
			"bufferView":17,
			"componentType":5126,
			"count":161,
			"type":"VEC2"
		},
		{
			"bufferView":18,
			"componentType":5126,
			"count":161,
			"type":"VEC3"
		},
		{
			"bufferView":19,
			"componentType":5126,
			"count":161,
			"max":[
				1.8691089153289795,
				0.9720759987831116,
				0.9667396545410156
			],
			"min":[
				-2.040095567703247,
				0.14512348175048828,
				-1.0980814695358276
			],
			"type":"VEC3"
		},
		{
			"bufferView":20,
			"componentType":5126,
			"count":161,
			"type":"VEC2"
		},
		{
			"bufferView":21,
			"componentType":5126,
			"count":161,
			"type":"VEC3"
		},
		{
			"bufferView":22,
			"componentType":5126,
			"count":104,
			"max":[
				5.958333333333333
			],
			"min":[
				1.6666666666666667
			],
			"type":"SCALAR"
		},
		{
			"bufferView":23,
			"componentType":5126,
			"count":104,
			"type":"VEC3"
		}
	],
	"bufferViews":[
		{
			"buffer":0,
			"byteLength":1932,
			"byteOffset":0,
			"target":34962
		},
		{
			"buffer":0,
			"byteLength":1288,
			"byteOffset":1932,
			"target":34962
		},
		{
			"buffer":0,
			"byteLength":1932,
			"byteOffset":3220,
			"target":34962
		},
		{
			"buffer":0,
			"byteLength":1668,
			"byteOffset":5152,
			"target":34963
		},
		{
			"buffer":0,
			"byteLength":337941,
			"byteOffset":6820
		},
		{
			"buffer":0,
			"byteLength":779716,
			"byteOffset":344764
		},
		{
			"buffer":0,
			"byteLength":333551,
			"byteOffset":1124480
		},
		{
			"buffer":0,
			"byteLength":1932,
			"byteOffset":1458032,
			"target":34962
		},
		{
			"buffer":0,
			"byteLength":1288,
			"byteOffset":1459964,
			"target":34962
		},
		{
			"buffer":0,
			"byteLength":1932,
			"byteOffset":1461252,
			"target":34962
		},
		{
			"buffer":0,
			"byteLength":1932,
			"byteOffset":1463184,
			"target":34962
		},
		{
			"buffer":0,
			"byteLength":1288,
			"byteOffset":1465116,
			"target":34962
		},
		{
			"buffer":0,
			"byteLength":1932,
			"byteOffset":1466404,
			"target":34962
		},
		{
			"buffer":0,
			"byteLength":1932,
			"byteOffset":1468336,
			"target":34962
		},
		{
			"buffer":0,
			"byteLength":1288,
			"byteOffset":1470268,
			"target":34962
		},
		{
			"buffer":0,
			"byteLength":1932,
			"byteOffset":1471556,
			"target":34962
		},
		{
			"buffer":0,
			"byteLength":1932,
			"byteOffset":1473488,
			"target":34962
		},
		{
			"buffer":0,
			"byteLength":1288,
			"byteOffset":1475420,
			"target":34962
		},
		{
			"buffer":0,
			"byteLength":1932,
			"byteOffset":1476708,
			"target":34962
		},
		{
			"buffer":0,
			"byteLength":1932,
			"byteOffset":1478640,
			"target":34962
		},
		{
			"buffer":0,
			"byteLength":1288,
			"byteOffset":1480572,
			"target":34962
		},
		{
			"buffer":0,
			"byteLength":1932,
			"byteOffset":1481860,
			"target":34962
		},
		{
			"buffer":0,
			"byteLength":416,
			"byteOffset":1483792
		},
		{
			"buffer":0,
			"byteLength":1248,
			"byteOffset":1484208
		}
	],
	"samplers":[
		{
			"magFilter":9729,
			"minFilter":9987
		}
	],
	"buffers":[
		{
			"byteLength":1485456,
			"uri":"data:application/octet-stream;base64,"
		}
	]
}
